
<svg xmlns="http://www.w3.org/2000/svg" width="87.036" height="62.809" viewBox="0 0 87.036 62.809"><defs><style>.a{fill:#e61378;}.b{fill:#fda759;}.c{fill:#f5f5f5;}</style></defs><g transform="translate(-586.764 -1133.845)"><g transform="matrix(0.951, -0.309, 0.309, 0.951, 586.764, 1149.226)"><path d="M46.873,33.227c-4.579,8.727-15.014,10.4-23.762,7.835a.175.175,0,0,1-.035-.019c-.007.007-.009.016-.017.019A18.662,18.662,0,0,1,16.324,44.6c-2.346.5-4.705-.2-6.94-.869-.255-.075-.175-.424.014-.512,2.541-1.228,5.5-3.608,5.765-6.632C6.2,34.015-1.161,26.3.152,16.5A20.192,20.192,0,0,1,5.362,5.541,17.045,17.045,0,0,1,17.054.127C26.48-.559,37.18,1.447,44,8.453a19.826,19.826,0,0,1,5.568,10.695A23.6,23.6,0,0,1,46.873,33.227Zm-8.789,7.138c5.038-2,8.172-6.061,9.844-11.127a20.151,20.151,0,0,0,.237-13.309,21.191,21.191,0,0,0-7.146-9.373A29.324,29.324,0,0,0,28.44,1.32a39.587,39.587,0,0,0-13.8-.342C6.3,2.468.411,10.892.541,19.171c.141,8.812,7.313,14.456,15.014,17.121.187.066.12.358-.047.378.064,2.947-2.808,5.38-5.277,6.736,2.1.613,4.32,1.146,6.478.523a19.913,19.913,0,0,0,6.025-3.318.25.25,0,0,1,.23-.041.207.207,0,0,1,.229-.056C28.046,41.935,33.308,42.265,38.083,40.366Z"/><path class="a" d="M47.388,28.722c-1.672,5.065-4.806,9.123-9.843,11.127-4.776,1.9-10.037,1.569-14.889.147a.206.206,0,0,0-.228.056.251.251,0,0,0-.231.041,19.913,19.913,0,0,1-6.025,3.318c-2.159.624-4.378.091-6.479-.523,2.469-1.356,5.341-3.789,5.277-6.736.166-.019.233-.311.047-.378C7.315,33.11.143,27.465,0,18.654-.128,10.374,5.761,1.95,14.105.46A39.588,39.588,0,0,1,27.9.8,29.323,29.323,0,0,1,40.478,6.039a21.19,21.19,0,0,1,7.146,9.373A20.151,20.151,0,0,1,47.388,28.722Z" transform="translate(0.539 0.517)"/></g><g transform="translate(632.563 1154.138)"><path d="M732.912,23.078a14.9,14.9,0,0,0-4.943,18.639,20.676,20.676,0,0,0,6.487,8c3.019,2.271,6.227,3.206,9.745,4.3a.254.254,0,0,0,0,.153,9.506,9.506,0,0,0,4.351,5.922c2.162,1.174,4.722,1.261,7.123,1.273.3,0,.33-.388.114-.524a9.366,9.366,0,0,1-4.079-5.53c-.014-.041-.029-.086-.039-.128-.08-.266-.449-.127-.4.129a8.878,8.878,0,0,0,3.5,5.489,13.518,13.518,0,0,1-5.536-1,8.887,8.887,0,0,1-4.5-5.8.2.2,0,0,0-.029-.055.292.292,0,0,0-.172-.409,46.718,46.718,0,0,1-5.5-1.759,22.2,22.2,0,0,1-4.745-2.91,19.655,19.655,0,0,1-6.37-8.836c-2.492-7.277.883-14.4,7.569-17.878,6.495-3.382,15.708-3.775,22.31-.455a15.418,15.418,0,0,1,7.607,8.522,22.68,22.68,0,0,1,1.649,11.4c-1.189,7.6-7.6,12.814-15.107,13.369a.215.215,0,0,0-.182.307.2.2,0,0,0,.2.129,16.321,16.321,0,0,0,15.83-16.106,24.637,24.637,0,0,0-3.138-12.033,16.19,16.19,0,0,0-8.414-6.871C748.99,17.683,739.245,18.5,732.912,23.078Z" transform="translate(-726.542 -18.852)"/><path class="b" d="M729.135,41.271a19.656,19.656,0,0,0,6.37,8.836,22.2,22.2,0,0,0,4.745,2.91,46.724,46.724,0,0,0,5.5,1.759.291.291,0,0,1,.172.409.191.191,0,0,1,.03.055,8.887,8.887,0,0,0,4.5,5.8,13.518,13.518,0,0,0,5.536,1,8.877,8.877,0,0,1-3.495-5.489c-.045-.257.324-.4.4-.129.011.043.025.087.039.128l.042-.014a.216.216,0,0,1,.183-.307c7.511-.555,13.919-5.764,15.107-13.369a22.679,22.679,0,0,0-1.649-11.4,15.417,15.417,0,0,0-7.607-8.522c-6.6-3.32-15.815-2.927-22.31.455C730.018,26.875,726.642,33.994,729.135,41.271Z" transform="translate(-727.775 -20.087)"/></g><g transform="translate(643.484 1168.799)"><path d="M780.938,107.689a2.822,2.822,0,0,1-2.578,2.948c-1.633.141-3.636-1.3-3.377-3.046a2.908,2.908,0,0,1,3.231-2.426C779.613,104.846,780.844,106.372,780.938,107.689Zm-3.117,2.366a2.264,2.264,0,0,0,2.572-2.045c.064-1.184-.946-2.6-2.259-2.29a.246.246,0,0,1-.265-.125,2.665,2.665,0,0,0-2.241,1.659C775.116,108.678,776.521,109.869,777.821,110.055Z" transform="translate(-774.961 -105.122)"/><path class="c" d="M781.635,109.062a2.264,2.264,0,0,1-2.572,2.045c-1.3-.186-2.705-1.377-2.194-2.8a2.665,2.665,0,0,1,2.241-1.659.246.246,0,0,0,.265.125C780.69,106.46,781.7,107.879,781.635,109.062Z" transform="translate(-776.203 -106.175)"/></g><g transform="translate(651.772 1171.561)"><path d="M780.938,107.689a2.822,2.822,0,0,1-2.578,2.948c-1.633.141-3.636-1.3-3.377-3.046a2.908,2.908,0,0,1,3.231-2.426C779.613,104.846,780.844,106.372,780.938,107.689Zm-3.117,2.366a2.264,2.264,0,0,0,2.572-2.045c.064-1.184-.946-2.6-2.259-2.29a.246.246,0,0,1-.265-.125,2.665,2.665,0,0,0-2.241,1.659C775.116,108.678,776.521,109.869,777.821,110.055Z" transform="translate(-774.961 -105.122)"/><path class="c" d="M781.635,109.062a2.264,2.264,0,0,1-2.572,2.045c-1.3-.186-2.705-1.377-2.194-2.8a2.665,2.665,0,0,1,2.241-1.659.246.246,0,0,0,.265.125C780.69,106.46,781.7,107.879,781.635,109.062Z" transform="translate(-776.203 -106.175)"/></g><g transform="translate(660.06 1174.324)"><path d="M780.938,107.689a2.822,2.822,0,0,1-2.578,2.948c-1.633.141-3.636-1.3-3.377-3.046a2.908,2.908,0,0,1,3.231-2.426C779.613,104.846,780.844,106.372,780.938,107.689Zm-3.117,2.366a2.264,2.264,0,0,0,2.572-2.045c.064-1.184-.946-2.6-2.259-2.29a.246.246,0,0,1-.265-.125,2.665,2.665,0,0,0-2.241,1.659C775.116,108.678,776.521,109.869,777.821,110.055Z" transform="translate(-774.961 -105.122)"/><path class="c" d="M781.635,109.062a2.264,2.264,0,0,1-2.572,2.045c-1.3-.186-2.705-1.377-2.194-2.8a2.665,2.665,0,0,1,2.241-1.659.246.246,0,0,0,.265.125C780.69,106.46,781.7,107.879,781.635,109.062Z" transform="translate(-776.203 -106.175)"/></g><g transform="matrix(0.951, -0.309, 0.309, 0.951, 605.575, 1149.167)"><path d="M17.016,5.649A8.766,8.766,0,0,1,16.3,15.6a7.214,7.214,0,0,1-3.792,2.361c-2.224.525-7.319-.21-7.065,3.449a.285.285,0,0,1-.474.224.248.248,0,0,1-.3.083c-1.4-.571-2.769-1.239-4.119-1.92a.205.205,0,0,1-.1-.1.255.255,0,0,1-.152-.36c1.381-2.91,3.337-5.919,6.641-6.8.76-.2,1.534-.211,2.3-.342,1.719-.3,3.1-1.763,2.339-3.6C10.288,5.5,6.573,6.736,4.8,8.518c.017.169-.172.37-.354.269A24.9,24.9,0,0,1,.064,5.807a.157.157,0,0,1-.03-.2.138.138,0,0,1-.028-.136A8.17,8.17,0,0,1,7.971,0,10.757,10.757,0,0,1,17.016,5.649ZM15.873,15.24a7.576,7.576,0,0,0,1.809-5.314,10.212,10.212,0,0,0-6.858-8.858A8.344,8.344,0,0,0,.354,5.577c0,.015-.016.023-.022.034C1.741,6.444,3.114,7.36,4.5,8.237A4.978,4.978,0,0,1,9.542,6.3,3.463,3.463,0,0,1,12.2,10.393C11.673,12.63,9.559,12.6,7.7,12.938,4.261,13.56,2.26,16.515.849,19.461c1.359.551,2.721,1.12,4.034,1.773-.031-2.863,3.267-3.433,5.528-3.587A7.346,7.346,0,0,0,15.873,15.24Z" transform="translate(1.194)"/><path class="c" d="M17.35,9.349a7.577,7.577,0,0,1-1.809,5.314,7.346,7.346,0,0,1-5.463,2.408c-2.261.154-5.559.724-5.528,3.587-1.313-.653-2.675-1.223-4.034-1.773,1.412-2.947,3.412-5.9,6.849-6.524,1.861-.335,3.975-.307,4.507-2.545A3.463,3.463,0,0,0,9.21,5.723,4.978,4.978,0,0,0,4.166,7.66C2.782,6.783,1.409,5.867,0,5.034.006,5.023.017,5.015.022,5A8.344,8.344,0,0,1,10.492.49,10.212,10.212,0,0,1,17.35,9.349Z" transform="translate(1.526 0.577)"/><path d="M5.785,3.716A2.823,2.823,0,0,1,2.3,5.511C.734,5.043-.6,2.971.282,1.438a2.907,2.907,0,0,1,3.9-1.07C5.6.586,6.181,2.457,5.785,3.716ZM2.017,4.772A2.264,2.264,0,0,0,5.16,3.814C5.655,2.737,5.236,1.046,3.9.855A.246.246,0,0,1,3.7.642,2.665,2.665,0,0,0,1,1.361C.006,2.5.876,4.122,2.017,4.772Z" transform="translate(0 21.951)"/><path class="c" d="M4.593,3.263a2.264,2.264,0,0,1-3.143.958C.309,3.571-.561,1.946.438.81A2.665,2.665,0,0,1,3.131.09a.245.245,0,0,0,.2.214C4.669.495,5.087,2.185,4.593,3.263Z" transform="translate(0.567 22.502)"/></g></g></svg>